<svg width="300" height="300" viewBox="0 0 300 300" fill="none" xmlns="http://www.w3.org/2000/svg">
<g clip-path="url(#clip0)">
<ellipse cx="209.389" cy="198.867" rx="72.5" ry="110" transform="rotate(40 209.389 198.867)" fill="#1A1A1A"/>
<ellipse cx="75.6972" cy="105.125" rx="57.5" ry="90" transform="rotate(-27.6473 75.6972 105.125)" fill="#1A1A1A"/>
<ellipse cx="209.157" cy="198.779" rx="62.5" ry="100" transform="rotate(40 209.157 198.779)" fill="#E6E6E6"/>
<ellipse cx="76.1703" cy="104.92" rx="47.5" ry="80" transform="rotate(-27.6473 76.1703 104.92)" fill="#E6E6E6"/>
<path d="M235.217 121.147C239.447 124.697 210.605 140.342 183.98 172.073C157.355 203.803 143.029 239.604 138.799 236.054C134.568 232.504 146.472 195.644 173.097 163.914C199.722 132.183 230.986 117.597 235.217 121.147Z" fill="#1A1A1A"/>
<path d="M99.9716 86.0128C115.834 114.159 119.854 140.149 117.208 141.64C114.561 143.132 104.834 114.159 88.9716 86.0128C73.1088 57.8664 57.1168 41.2046 59.7631 39.7132C62.4093 38.2218 84.1088 57.8664 99.9716 86.0128Z" fill="#1A1A1A"/>
</g>
<defs>
<clipPath id="clip0">
<rect width="300" height="300" rx="90" fill="white"/>
</clipPath>
</defs>
</svg>
